# xmcd
#
# Track frame offsets: 
#        150
#        14472
#        25452
#        37590
#        50265
#        62077
#        72695
#        89230
#        100970
#        113102
#        126207
#        136860
#        146682
#        158962
#        161827
#        173775
#        186910
#        196462
#        209130
#        222197
#
# Disc length: 3146 seconds
#
# Revision: 2
# Processed by: cddbd v1.5.2PL0 Copyright (c) Steve Scherf et al.
# Submitted via: ExactAudioCopy v0.90b4
#
DISCID=350c4814
DTITLE=Freddy Fender - Greatest Hits
DYEAR=1989
DGENRE=Country
TTITLE0=Wasted Days and Wasted Nights
TTITLE1=The Rain Came
TTITLE2=You'll Lose A Good Thing
TTITLE3=Almost Persuaded
TTITLE4=I'm Leaving It Up To You
TTITLE5=A Man Can Cry
TTITLE6=Wild Side Of Life
TTITLE7=She's About a mover
TTITLE8=Crazy Baby
TTITLE9=Girl Who Waits On Tables
TTITLE10=Before The Next Teardrop Falls
TTITLE11=Mathilda
TTITLE12=Lovin' Cajun Style
TTITLE13=What'd ISay
TTITLE14=Sweet summer Day
TTITLE15=Silver Wings
TTITLE16=Running Back
TTITLE17=Enter My Heart
TTITLE18=Going Out With The Tide
TTITLE19=Baby I Want To Love You
EXTD=
EXTT0=
EXTT1=
EXTT2=
EXTT3=
EXTT4=
EXTT5=
EXTT6=
EXTT7=
EXTT8=
EXTT9=
EXTT10=
EXTT11=
EXTT12=
EXTT13=
EXTT14=
EXTT15=
EXTT16=
EXTT17=
EXTT18=
EXTT19=
PLAYORDER=
